REM DIRINDEX 1\2\4,1\2\5,1\3\6,1\3\7
REM DIRNAME cjc072,folder01,folder02,folder03,folder04,folder05,folder06
TITLE ""
FILE "grammar_ch06.mp3" MP3
  TRACK 01 AUDIO
    TITLE "5:cjc072_395"
    INDEX 01 00:00:00
  TRACK 02 AUDIO
    TITLE "5:cjc072_396"
    INDEX 01 00:01:62
  TRACK 03 AUDIO
    TITLE "4:cjc072_397"
    INDEX 01 00:03:29
  TRACK 04 AUDIO
    TITLE "0:"
    INDEX 01 00:09:57
  TRACK 05 AUDIO
    TITLE "7:cjc072_398"
    INDEX 01 00:11:23
  TRACK 06 AUDIO
    TITLE "7:cjc072_399"
    INDEX 01 00:13:37
  TRACK 07 AUDIO
    TITLE "6:cjc072_400"
    INDEX 01 00:15:07
  TRACK 08 AUDIO
    TITLE "0:"
    INDEX 01 00:21:27
  TRACK 09 AUDIO
    TITLE "5:cjc072_401"
    INDEX 01 00:22:68
  TRACK 10 AUDIO
    TITLE "4:cjc072_402"
    INDEX 01 00:24:37
  TRACK 11 AUDIO
    TITLE "0:"
    INDEX 01 00:30:22
  TRACK 12 AUDIO
    TITLE "7:cjc072_403"
    INDEX 01 00:31:61
  TRACK 13 AUDIO
    TITLE "6:cjc072_404"
    INDEX 01 00:33:22
  TRACK 14 AUDIO
    TITLE "0:"
    INDEX 01 00:38:49
  TRACK 15 AUDIO
    TITLE "5:cjc072_405"
    INDEX 01 00:40:17
  TRACK 16 AUDIO
    TITLE "4:cjc072_406"
    INDEX 01 00:41:61
  TRACK 17 AUDIO
    TITLE "0:"
    INDEX 01 00:48:40
  TRACK 18 AUDIO
    TITLE "7:cjc072_407"
    INDEX 01 00:50:05
  TRACK 19 AUDIO
    TITLE "6:cjc072_408"
    INDEX 01 00:51:42
  TRACK 20 AUDIO
    TITLE "0:"
    INDEX 01 00:57:52
  TRACK 21 AUDIO
    TITLE "5:cjc072_409"
    INDEX 01 00:59:20
  TRACK 22 AUDIO
    TITLE "4:cjc072_410"
    INDEX 01 01:00:64
  TRACK 23 AUDIO
    TITLE "0:"
    INDEX 01 01:08:11
  TRACK 24 AUDIO
    TITLE "7:cjc072_411"
    INDEX 01 01:09:48
  TRACK 25 AUDIO
    TITLE "6:cjc072_412"
    INDEX 01 01:11:23
  TRACK 26 AUDIO
    TITLE "0:"
    INDEX 01 01:18:19
  TRACK 27 AUDIO
    TITLE "5:cjc072_413"
    INDEX 01 01:19:58
  TRACK 28 AUDIO
    TITLE "4:cjc072_414"
    INDEX 01 01:21:33
  TRACK 29 AUDIO
    TITLE "0:"
    INDEX 01 01:28:41
  TRACK 30 AUDIO
    TITLE "7:cjc072_415"
    INDEX 01 01:30:05
  TRACK 31 AUDIO
    TITLE "6:cjc072_416"
    INDEX 01 01:31:59
  TRACK 32 AUDIO
    TITLE "0:"
    INDEX 01 01:38:49
  TRACK 33 AUDIO
    TITLE "5:cjc072_417"
    INDEX 01 01:40:13
  TRACK 34 AUDIO
    TITLE "4:cjc072_418"
    INDEX 01 01:41:57
  TRACK 35 AUDIO
    TITLE "0:"
    INDEX 01 01:48:11
  TRACK 36 AUDIO
    TITLE "7:cjc072_419"
    INDEX 01 01:49:49
  TRACK 37 AUDIO
    TITLE "6:cjc072_420"
    INDEX 01 01:51:27
  TRACK 38 AUDIO
    TITLE "0:"
    INDEX 01 01:57:62
  TRACK 39 AUDIO
    TITLE "5:cjc072_421"
    INDEX 01 01:59:26
  TRACK 40 AUDIO
    TITLE "4:cjc072_422"
    INDEX 01 02:01:03
  TRACK 41 AUDIO
    TITLE "0:"
    INDEX 01 02:06:18
  TRACK 42 AUDIO
    TITLE "7:cjc072_423"
    INDEX 01 02:07:57
  TRACK 43 AUDIO
    TITLE "6:cjc072_424"
    INDEX 01 02:09:22
  TRACK 44 AUDIO
    TITLE "0:"
    INDEX 01 02:14:08
  TRACK 45 AUDIO
    TITLE "5:cjc072_425"
    INDEX 01 02:15:51
  TRACK 46 AUDIO
    TITLE "4:cjc072_426"
    INDEX 01 02:17:20
  TRACK 47 AUDIO
    TITLE "0:"
    INDEX 01 02:22:45
  TRACK 48 AUDIO
    TITLE "7:cjc072_427"
    INDEX 01 02:24:08
  TRACK 49 AUDIO
    TITLE "6:cjc072_428"
    INDEX 01 02:25:45
  TRACK 50 AUDIO
    TITLE "0:"
    INDEX 01 02:30:27
  TRACK 51 AUDIO
    TITLE "5:cjc072_429"
    INDEX 01 02:31:65
  TRACK 52 AUDIO
    TITLE "4:cjc072_430"
    INDEX 01 02:33:29
  TRACK 53 AUDIO
    TITLE "0:"
    INDEX 01 02:39:47
  TRACK 54 AUDIO
    TITLE "7:cjc072_431"
    INDEX 01 02:41:11
  TRACK 55 AUDIO
    TITLE "6:cjc072_432"
    INDEX 01 02:42:59
  TRACK 56 AUDIO
    TITLE "0:"
    INDEX 01 02:49:08
  TRACK 57 AUDIO
    TITLE "5:cjc072_433"
    INDEX 01 02:50:49
  TRACK 58 AUDIO
    TITLE "4:cjc072_434"
    INDEX 01 02:52:12
  TRACK 59 AUDIO
    TITLE "0:"
    INDEX 01 03:01:49
  TRACK 60 AUDIO
    TITLE "7:cjc072_435"
    INDEX 01 03:03:14
  TRACK 61 AUDIO
    TITLE "6:cjc072_436"
    INDEX 01 03:04:63
  TRACK 62 AUDIO
    TITLE "0:"
    INDEX 01 03:13:36
  TRACK 63 AUDIO
    TITLE "5:cjc072_437"
    INDEX 01 03:15:04
  TRACK 64 AUDIO
    TITLE "4:cjc072_438"
    INDEX 01 03:16:48
  TRACK 65 AUDIO
    TITLE "0:"
    INDEX 01 03:23:31
  TRACK 66 AUDIO
    TITLE "7:cjc072_439"
    INDEX 01 03:24:71
  TRACK 67 AUDIO
    TITLE "6:cjc072_440"
    INDEX 01 03:26:53
  TRACK 68 AUDIO
    TITLE "0:"
    INDEX 01 03:33:45
  TRACK 69 AUDIO
    TITLE "5:cjc072_441"
    INDEX 01 03:35:08
  TRACK 70 AUDIO
    TITLE "4:cjc072_442"
    INDEX 01 03:36:57
  TRACK 71 AUDIO
    TITLE "0:"
    INDEX 01 03:43:18
  TRACK 72 AUDIO
    TITLE "7:cjc072_443"
    INDEX 01 03:44:58
  TRACK 73 AUDIO
    TITLE "6:cjc072_444"
    INDEX 01 03:46:34
  TRACK 74 AUDIO
    TITLE "0:"
    INDEX 01 03:53:02
  TRACK 75 AUDIO
    TITLE "5:cjc072_445"
    INDEX 01 03:54:41
  TRACK 76 AUDIO
    TITLE "4:cjc072_446"
    INDEX 01 03:56:26
  TRACK 77 AUDIO
    TITLE "0:"
    INDEX 01 04:00:61
  TRACK 78 AUDIO
    TITLE "7:cjc072_447"
    INDEX 01 04:02:25
  TRACK 79 AUDIO
    TITLE "6:cjc072_448"
    INDEX 01 04:04:10
  TRACK 80 AUDIO
    TITLE "0:"
    INDEX 01 04:08:41
  TRACK 81 AUDIO
    TITLE "5:cjc072_449"
    INDEX 01 04:10:07
  TRACK 82 AUDIO
    TITLE "4:cjc072_450"
    INDEX 01 04:11:71
  TRACK 83 AUDIO
    TITLE "0:"
    INDEX 01 04:17:07
  TRACK 84 AUDIO
    TITLE "7:cjc072_451"
    INDEX 01 04:18:43
  TRACK 85 AUDIO
    TITLE "6:cjc072_452"
    INDEX 01 04:20:33
  TRACK 86 AUDIO
    TITLE "0:"
    INDEX 01 04:25:36
  TRACK 87 AUDIO
    TITLE "5:cjc072_453"
    INDEX 01 04:27:05
  TRACK 88 AUDIO
    TITLE "4:cjc072_454"
    INDEX 01 04:28:67
  TRACK 89 AUDIO
    TITLE "0:"
    INDEX 01 04:37:43
  TRACK 90 AUDIO
    TITLE "7:cjc072_455"
    INDEX 01 04:39:06
  TRACK 91 AUDIO
    TITLE "6:cjc072_456"
    INDEX 01 04:40:72
  TRACK 92 AUDIO
    TITLE "0:"
    INDEX 01 04:48:43
